<?xml version="1.0" encoding="utf-8"?>
<!-- Generator: Adobe Illustrator 17.0.0, SVG Export Plug-In . SVG Version: 6.00 Build 0)  -->
<!DOCTYPE svg PUBLIC "-//W3C//DTD SVG 1.1//EN" "http://www.w3.org/Graphics/SVG/1.1/DTD/svg11.dtd">
<svg version="1.1" xmlns="http://www.w3.org/2000/svg" xmlns:xlink="http://www.w3.org/1999/xlink" x="0px" y="0px" width="800px"
	 height="800px" viewBox="0 0 800 800" enable-background="new 0 0 800 800" xml:space="preserve">
<g id="Layer_1">
	<g>
		<path d="M390.811,210.288c-5.915,0.282-11.266,1.69-16.618,3.943c-6.478,2.816-12.675,7.041-18.589,11.829
			c10.14,4.225,15.773,12.111,16.055,18.589c0.563,7.605-1.409,15.773-7.323,20.561c-4.225,3.662-10.984,2.816-13.238-2.816
			c-7.041-19.716-17.462-35.489-31.827-42.812l1.69-2.535c9.013,1.127,18.026,3.098,26.475,5.915
			c3.38-5.915,6.478-13.238,8.168-19.152H184.639c0.563,17.463-3.098,29.855-12.956,36.615c-5.915,3.943-12.674,4.507-17.744,2.817
			c-4.506-1.408-7.323-4.506-7.605-8.731c0-3.661,2.253-7.886,7.605-12.393c13.519-11.266,21.406-21.969,24.504-39.995h4.225
			c0.282,2.817,0.845,9.858,1.408,12.956h28.447c-4.506-12.956-12.674-27.039-21.406-33.235l1.408-1.972
			c12.674,1.972,24.222,5.07,32.672,10.14c3.943,2.535,6.478,5.633,7.323,9.295c1.69,5.07,0,10.985-5.07,15.773h35.77
			c-2.253-2.535-2.817-4.507-3.098-8.168c-1.408-10.703-5.351-21.406-11.83-29.292c-23.096,0.282-50.135-0.282-73.512-1.408v-3.38
			c68.724-5.351,133.505-16.336,162.515-28.729c9.858,7.323,19.997,16.336,27.602,25.067c0.845,1.127-0.563,3.661-1.972,3.661
			c-12.393-1.408-23.659-0.563-35.207,0.845c7.605,3.38,16.336,7.886,23.941,13.519c2.253,1.408,0.845,4.507-1.408,4.507
			c-2.535,0-5.633,0.282-8.731,2.535c-10.421,7.323-21.124,14.928-31.264,20.843h43.938c3.098-4.225,6.478-8.168,9.576-11.548
			c0.845-0.845,1.972-0.845,3.38,0c9.013,5.07,18.026,12.111,25.912,19.997C395.881,206.063,393.346,210.006,390.811,210.288z
			 M378.418,359.847c-5.07,4.225-9.013,9.858-11.829,16.336c-32.39-4.225-67.034-14.364-91.256-29.292
			c-38.305,16.336-79.99,23.941-123.929,27.039l-0.282-3.943c41.685-9.858,76.61-21.406,103.931-37.46
			c-8.45-7.886-16.336-17.181-21.969-27.039c-21.124,16.618-43.657,29.855-67.316,39.995l-1.972-3.098
			c25.349-19.434,48.163-45.065,63.936-71.259c-3.661-2.253-6.196-5.07-7.886-8.45c-1.972-4.225-2.816-9.013-2.816-14.083v-24.786
			c0-4.788-0.282-9.295-0.845-13.801c12.393,2.535,24.222,5.915,35.77,10.421c1.69,0.563,1.972,3.943,0.845,4.225
			c-3.662,1.408-7.041,4.507-7.041,7.041v12.393c0,2.816,2.535,5.351,5.07,5.351c10.14,0,29.01,0,39.713-0.282
			c4.507-0.282,7.323-3.38,8.731-7.323c1.408-3.661,3.943-14.646,4.788-21.406l3.943,0.282c0.282,8.45,1.972,15.491,6.196,20.279
			c3.098,3.662,7.323,5.915,13.238,6.196c-2.253,9.013-4.788,15.491-9.295,19.434c-3.943,3.662-9.294,5.352-16.899,5.915
			c-16.336,1.127-34.362,1.408-50.698,1.127c4.788,1.972,10.421,3.943,14.083,6.196c1.408,0.845,0.845,3.943-0.845,4.225
			c-5.07,0.563-10.985,2.817-13.519,6.196h50.98c2.816-2.535,9.294-7.886,13.238-11.266c0.845-0.563,3.38-0.563,4.225,0
			c8.731,5.633,17.181,12.111,24.786,19.716c1.408,1.126,0.845,4.506-1.127,4.788c-3.661,0.563-8.45,2.253-12.111,5.351
			c-10.984,9.295-22.251,18.308-32.672,25.912c27.884,8.731,63.372,11.829,98.861,12.111l0.282,4.225
			C389.403,352.524,383.488,355.622,378.418,359.847z M196.187,263.802c-3.943,5.07-10.14,7.605-16.899,7.323
			c-5.07-0.282-11.548-2.253-13.519-7.605c-1.972-3.943-0.282-9.295,5.915-12.956c16.054-10.14,22.814-18.589,28.447-33.799
			l3.098,0.282C205.2,232.538,204.355,252.818,196.187,263.802z M240.689,299.009c-0.845,0.845-1.69,1.971-2.817,2.535
			c8.731,9.858,19.434,17.181,30.419,22.814c9.858-7.323,20.842-16.336,29.01-25.349H240.689z M279.557,244.65
			c-3.943,1.408-8.731,0-10.985-6.76c-4.788-12.393-10.421-21.687-18.871-29.01l1.972-2.253c11.548,0.563,24.222,4.506,30.137,8.168
			c5.352,3.38,6.76,9.013,6.76,14.928C288.57,236.482,284.627,242.96,279.557,244.65z M258.996,157.9
			c7.605,2.253,14.928,5.915,20.279,10.421c3.943,3.661,5.351,9.013,4.225,14.083c-0.845,5.07-4.225,10.14-8.731,12.675H300.4
			c8.168-12.675,14.364-26.194,18.871-40.558C299.837,156.21,278.431,157.055,258.996,157.9z"/>
	</g>
	<g>
		<polygon points="453.506,427.118 475.896,442.792 488.956,418.485 466.566,401.651 454.252,421.522 431.862,406.595 
			416.934,432.716 439.324,448.762 		"/>
		<polygon points="552.172,639.076 528.662,622.658 514.855,647.228 538.365,663.983 550.305,643.926 573.07,659.599 
			587.249,634.224 564.859,617.432 		"/>
		<polygon points="628.15,617.806 613.969,640.138 636.361,655.03 651.661,633.438 		"/>
		<path d="M651.659,541.629c0-7.716-1.248-15.68-3.731-23.901c-2.49-8.215-5.849-17.551-10.076-28.011l-13.063,27.649
			c-0.502,1.248-1.307,3.119-2.425,5.609c-1.118,2.49-1.679,4.979-1.679,7.469c0,1.994,2.362,5.795,7.091,11.399
			c4.722,5.611,7.091,9.033,7.091,10.274c0,3.487-3.05,5.625-9.143,6.873c-6.098,1.25-19.256,2.011-31.157,2.011h-11.795
			c-7.463-1-11.631-3.091-12.5-4.274c-0.874-1.183-2.053-6.726-3.545-15.726h-2.239c-7.218,10-13.002,15.697-17.352,17.6
			c-4.356,1.9-12.5,2.4-28.174,2.4h-7.988c-8.955,0-14.365-1.322-16.232-4.062c-1.867-2.734-3.731-9.99-5.598-21.809
			c-1.865-11.813-3.731-25.114-5.598-39.918c-1.865-14.798-3.917-27.797-6.156-38.991c-3.731,3.487-7.592,7.035-11.568,10.638
			c-3.982,3.61-5.97,7.408-5.97,11.383c0,2.74,0.309,6.408,0.932,11.009c0.617,4.607,1.177,8.899,1.679,12.875
			c-21.644,12.191-35.451,22.827-41.421,31.906c-5.97,9.085-8.955,19.591-8.955,31.534c0,8.209,3.416,13.433,10.262,15.674
			c6.84,2.237,14.49,3.357,22.95,3.357c2.239,0,4.35-1.179,6.344-3.545c1.988-2.362,4.105-5.038,6.344-8.023l13.807-16.42
			c3.976,17.166,7.521,29.105,10.636,35.57c3.106,6.474,9.76,9.823,19.963,9.823h16.569c12.689,0,17.538-1.33,20.523-4.491
			c2.985-3.161,7.335-9.232,13.061-18.083c5.719,10.623,9.267,16.726,10.636,18.499c1.365,1.775,7.651,3.075,18.845,4.075h12.541
			c16.915,0,32.211-4.101,42.165-11.693C646.679,582.717,651.659,566.531,651.659,541.629z M466.566,547c-2.49,0-4.979,0-7.463,0
			c-3.236,0-7.778-0.731-13.621-2.1c-5.849-1.365-8.769-3.068-8.769-5.063c0-3.731,3.294-7.849,9.89-12.327
			c6.589-4.478,12.624-8.46,18.099-11.946l3.357,22.387l1.12,4.898C469.179,544.843,468.303,546,466.566,547z"/>
	</g>
	<g>
		<path d="M417.14,308.713v-0.933c0-48.983,44.318-75.574,104.031-75.574c32.655,0,61.112,5.598,83.972,13.062v-15.861
			c0-53.182-31.723-79.306-83.972-79.306c-28.923,0-53.182,7.931-76.507,19.593l-5.599-13.062
			c26.125-12.596,51.782-20.526,83.039-20.526c32.188,0,57.38,8.397,74.641,25.658c14.929,15.395,23.325,37.787,23.325,66.71
			v146.483h-14.928v-48.983c-12.13,25.658-44.785,54.582-98.899,54.582C460.991,380.555,417.14,356.297,417.14,308.713z
			 M605.608,288.187v-28.923c-22.858-7.464-49.916-13.062-84.904-13.062c-51.782,0-87.703,21.926-87.703,60.646v0.933
			c0,38.72,34.988,58.78,74.175,58.78C564.09,366.56,605.608,330.172,605.608,288.187z"/>
	</g>
	<g>
		<path d="M346.65,480.248c-1.953,3.906-3.906,8.649-5.859,13.95c11.998,3.906,19.81,8.092,28.18,15.625
			c15.346,13.671,22.879,31.249,22.879,52.453c0,33.76-18.694,60.823-52.454,75.89c-15.066,6.696-30.412,10.323-56.359,12.835
			c-4.464-15.066-9.207-26.227-15.625-36.829c-19.251,18.136-43.525,29.017-64.729,29.017c-32.923,0-53.848-22.042-53.848-56.917
			c0-23.716,9.765-46.595,27.9-64.73c11.161-11.16,21.484-18.135,38.782-25.39c0-9.486,0-12.276,0.279-24.273
			c-11.997-0.278-11.997-0.278-32.644-0.558c-4.185-0.279-8.649-0.279-13.671-0.279c-3.906,0-5.022,0-8.928,0.279l-0.558-44.083
			c16.183,3.068,30.412,4.185,51.896,4.185h1.674l3.906-0.278c0.279-3.628,0.279-3.628,0.837-11.998
			c0.279-2.79,0.279-5.858,0.279-8.928c0-5.58,0-7.812-0.558-11.719l47.989,1.953c-2.232,8.37-2.79,12.835-4.464,29.296
			c45.199-2.511,82.028-7.533,104.627-13.95l1.953,45.199c-4.464,0.278-5.58,0.278-11.997,1.116
			c-26.785,3.905-69.194,7.254-97.095,8.37c-0.279,2.79-0.279,2.79-0.558,7.533c0,1.674,0,2.511-0.279,8.37
			c12.555-1.953,17.578-2.512,27.063-2.512c5.301,0,7.533,0,13.114,0.559c2.232-6.417,3.069-10.323,3.627-15.903L346.65,480.248z
			 M192.917,582.365c0,10.323,4.185,16.182,11.997,16.182c5.301,0,10.044-1.674,15.346-5.301c-2.511-14.229-3.906-30.69-4.185-50.5
			C201.009,553.349,192.917,567.02,192.917,582.365z M259.6,563.672c10.603-12.835,20.926-29.854,26.227-42.968
			c-2.511-0.278-3.348-0.278-5.859-0.278c-8.091,0-14.508,0.837-22.042,3.068C257.926,541.63,258.205,549.721,259.6,563.672z
			 M317.913,596.315c16.183-7.533,26.506-22.042,26.506-37.387c0-12.556-5.301-20.368-17.856-26.785
			c-12.834,29.854-28.18,52.453-48.827,72.821C296.15,603.569,307.311,601.337,317.913,596.315z"/>
	</g>
</g>
<g id="Layer_2" display="none">
	<path display="inline" stroke="#000000" stroke-miterlimit="10" d="M799.5,800.5h-800V0.5h800V800.5z M400,16.064
		C187.958,16.064,16.064,187.958,16.064,400S187.958,783.936,400,783.936S783.936,612.042,783.936,400S612.042,16.064,400,16.064z"
		/>
</g>
</svg>
